<?xml version="1.0" encoding="UTF-8"?>
<svg id="icon" xmlns="http://www.w3.org/2000/svg" version="1.1" viewBox="0 0 32 32">
  <!-- Generator: Adobe Illustrator 29.1.0, SVG Export Plug-In . SVG Version: 2.1.0 Build 142)  -->
  <path d="M30.9,13.8h-3.1c-.3-1.6-.9-3.1-1.8-4.5l2.2-2.2c.4-.4.4-1.1,0-1.6h0l-1.7-1.7c-.4-.4-1.1-.4-1.6,0h0l-2.2,2.2c-1.4-.9-2.9-1.5-4.5-1.8V1.1c0-.6-.5-1.1-1.1-1.1h-2.2c-.6,0-1.1.5-1.1,1.1h0v3.1c-1.6.3-3.1.9-4.5,1.8l-2.2-2.2c-.4-.4-1.1-.4-1.6,0h0l-1.7,1.7c-.4.4-.4,1.1,0,1.6h0l2.2,2.2c-.9,1.4-1.5,2.9-1.8,4.5H1.1c-.6,0-1.1.5-1.1,1.1h0v2.2c0,.6.5,1.1,1.1,1.1h3.1c.3,1.6.9,3.1,1.8,4.5l-2.2,2.2c-.4.4-.4,1.1,0,1.6h0l1.7,1.7c.4.4,1.1.4,1.6,0h0l2.2-2.2c1.4.9,2.9,1.5,4.5,1.8v3.1c0,.6.5,1.1,1.1,1.1h2.2c.6,0,1.1-.5,1.1-1.1v-3.1c1.6-.3,3.1-.9,4.5-1.8l2.2,2.2c.4.4,1.1.4,1.6,0h0l1.7-1.7c.4-.4.4-1.1,0-1.6h0l-2.2-2.2c.9-1.4,1.5-2.9,1.8-4.5h3.1c.6,0,1.1-.5,1.1-1.1h0v-2.2c0-.6-.5-1.1-1.1-1.1h0ZM20.4,16c0,2.4-2,4.4-4.4,4.4s-4.4-2-4.4-4.4,2-4.4,4.4-4.4h0c2.4,0,4.4,2,4.4,4.4Z"/>
</svg>